<svg xmlns="http://www.w3.org/2000/svg" width="32" height="32" viewBox="0 0 32 32">
  <defs>
    <linearGradient id="grad1" x1="0%" y1="0%" x2="100%" y2="100%">
      <stop offset="0%" style="stop-color:#1976d2;stop-opacity:1" />
      <stop offset="100%" style="stop-color:#42a5f5;stop-opacity:1" />
    </linearGradient>
  </defs>
  <!-- Campaign megaphone icon -->
  <path fill="url(#grad1)" d="M4 12c0-1.1.9-2 2-2h3l6-6c.6-.6 1.4-.6 2 0 .6.6.6 1.4 0 2L13 10v12l4 4c.6.6.6 1.4 0 2-.6.6-1.4.6-2 0l-6-6H6c-1.1 0-2-.9-2-2V12z"/>
  <!-- Email waves -->
  <path fill="#ffb74d" d="M19 8c.6 0 1 .4 1 1s-.4 1-1 1-1-.4-1-1 .4-1 1-1m0 4c.6 0 1 .4 1 1s-.4 1-1 1-1-.4-1-1 .4-1 1-1m0 4c.6 0 1 .4 1 1s-.4 1-1 1-1-.4-1-1 .4-1 1-1"/>
  <path fill="#4caf50" d="M22 10c.6 0 1 .4 1 1s-.4 1-1 1-1-.4-1-1 .4-1 1-1m0 4c.6 0 1 .4 1 1s-.4 1-1 1-1-.4-1-1 .4-1 1-1"/>
  <path fill="#f44336" d="M25 12c.6 0 1 .4 1 1s-.4 1-1 1-1-.4-1-1 .4-1 1-1"/>
</svg>
